<svg width="70" height="43" xmlns="http://www.w3.org/2000/svg"><g fill="#FEFEFE" fill-rule="evenodd"><path d="M26.152 13.16l-.002-.736-1.38-.014-.007 4.505 1.527.007c.064-1.018-.326-3.159.744-3.311 1.144-.163.627 1.811.762 3.303l1.519.009c.075-1.042-.315-3.153.737-3.311 1.124-.17.67 1.779.767 3.298l1.524.014c.05-.656.008-1.471.008-2.138 0-.661.033-1.375-.26-1.88-.562-.969-2.439-.688-2.852.214-.213-.108-.15-.35-.609-.61-.673-.384-1.804-.251-2.309.488-.081.12-.031.107-.169.162M17.772 16.91l1.59.014.491-1.29 2.228-.004c.131.245.342.942.458 1.286l1.705.008c-.008-.288-.942-2.555-1.12-3.04-.19-.52-.38-.993-.565-1.49-.106-.283-.453-1.302-.592-1.508l-1.925-.01-2.27 6.034zm3.214-4.748c.114.097.308.913.375 1.137.096.317.303.875.344 1.183l-1.457.008c.015-.183.656-2.19.738-2.328zM18.102 30.33l-.122 1.28c.406.272 3.574.778 4.252-.915.188-.47.193-1.124-.022-1.587-.196-.418-.56-.656-1.052-.846-.39-.15-1.124-.282-1.395-.496-.458-.362-.273-1.171 1.443-.89l.622.173c.102.005.057.01.12-.026l.099-1.147c-.277-.184-1.271-.242-1.666-.237-2.63.031-2.86 1.998-2.126 2.925.56.708 2.256.765 2.449 1.347.322.97-1.269.832-1.898.663-.184-.05-.617-.241-.704-.243M23.06 24.193l-.068-1.219c-.244.036-.553.198-1.121.271-1.238.158-2.366-.479-2.358-1.92.01-1.662 1.459-2.272 2.92-1.736.16.059.37.191.501.195l.122-1.273c-1.195-.347-2.456-.487-3.601.08-.952.472-1.573 1.348-1.582 2.734-.024 3.794 4.609 3.25 5.187 2.868M44.108 32.456c-.017.255-.12.955-.067 1.155 2.162.52 2.548-.714 3.144-2.232.268-.683.523-1.338.79-2.031.139-.363.742-1.822.777-2.071l-1.488-.001c-.106.165-.391 1.186-.471 1.45-.084.275-.351 1.265-.473 1.438-.166-.186-.833-2.743-.992-2.867-.173-.09-1.312-.033-1.601-.024-.001.255 1.745 4.42 1.753 4.61.01.233-.25.499-.468.583-.387.149-.588-.032-.904-.01"/><path d="M24.812 27.21c-3.258.503-2.651 5.16.981 4.643 1.336-.19 2.338-1.238 2.044-2.824-.238-1.292-1.502-2.055-3.025-1.82m.232 1.085c1.49-.381 1.646 2.179.537 2.469-1.524.399-1.72-2.166-.537-2.469M54.85 13.187l-.01-.76-1.378-.017-.009 4.505 1.526.007c.076-1.113-.366-3.21.86-3.316 1.225-.106.671 1.887.826 3.313l1.512.005c.07-.592.012-1.581.012-2.215 0-.783.018-1.322-.384-1.842-.59-.76-2.062-.747-2.695 0a1.51 1.51 0 00-.114.15c-.084.127-.033.098-.147.17M30.126 20.603l-.006-.754-1.381-.007-.014 4.494 1.528.008c.057-1.105-.34-3.212.85-3.301 1.21-.09.734 1.73.839 3.294l1.521.006c.03-.713.005-1.47.004-2.177 0-.738.04-1.308-.36-1.837-.62-.818-2.201-.817-2.827.12-.077.116-.046.112-.154.154M48.726 12.644l.017 1.015c.181-.045.364-.159.597-.217.633-.158 1.811-.27 1.83.668-.802-.024-1.434-.121-2.15.2-1.31.586-1.139 2.502.47 2.694 1.286.153 1.508-.57 1.75-.735l.052.636 1.394.019c-.01-.347-.072-.665-.071-1.029.002-1.743.325-3.499-1.99-3.587-.53-.02-1.556.067-1.899.336m1.452 2.286c.216-.047.4-.037.636-.03.265.006.407-.052.349.238-.07.35-.296.645-.564.77-.9.42-1.534-.732-.42-.978M24.053 20.063l.007 1.015c.094-.003.448-.167.63-.212.601-.149 1.876-.227 1.796.677-.836-.008-1.393-.124-2.145.2-1.3.562-1.17 2.47.472 2.695 1.21.165 1.465-.515 1.723-.718.075.124.062.455.068.598.18.06 1.157.036 1.398.02-.009-.336-.066-.65-.066-1.025.001-1.73.318-3.483-1.966-3.57-.573-.021-1.492.074-1.917.32m2.42 2.524c-.219 1.034-1.355.988-1.53.507-.156-.429.223-.667.526-.737.206-.048.439-.03.652-.025.297.006.42-.06.353.255M42.586 24.17l.002-1.065c-.427.085-.667.372-1.593.307-.53-.038-1.077-.305-1.053-.861l3.045-.004c.369-3.289-3.397-3.52-4.348-1.661-.6 1.173-.177 2.485.602 3.058.84.618 2.351.674 3.345.227m-.985-2.505l-1.67.006a.843.843 0 01.839-.952c.514.004.892.385.831.946M39.218 31.607l.01-1.068c-.385.075-.764.39-1.626.302-.51-.052-1.056-.337-1.034-.848l3.049-.016c.248-3.497-3.453-3.386-4.348-1.645-.582 1.133-.184 2.45.583 3.02.913.68 2.235.664 3.366.255zM36.56 29.1c-.045-1.238 1.724-1.3 1.687 0H36.56zM37.138 16.737l.004-1.068c-.473.123-.754.386-1.583.311-.57-.051-1.05-.284-1.063-.856l3.045-.007c.08-.563-.08-1.332-.294-1.738-.854-1.625-3.343-1.284-4.04.057-.61 1.177-.192 2.473.56 3.05.858.656 2.274.69 3.371.251zm-2.66-2.504a.85.85 0 01.855-.942c.53.001.88.4.84.949l-1.695-.007zM40.693 26.257l-.01.985c-.286.087-.79-.036-.883.065-.085.142-.029.809-.026 1.032l.875.029c.14.86-.189 2.21.227 2.91.379.637 1.514.75 2.448.514l-.043-.97c-.274-.041-.448.107-.763-.022-.468-.192-.317-1.258-.321-1.98-.002-.175-.017-.24.023-.404a.218.218 0 01.01-.03l1.046-.028c.029-1.055.094-1.086-.237-1.09-.274-.004-.57.02-.84-.01l-.003-1.45c-.253.009-1.203.358-1.503.449M47.743 16.813l-.019-1.114c-.246.041-.413.144-.695.175-1.993.217-2.056-2.565-.143-2.418.334.026.46.158.726.203l.105-1.09c-.57-.45-2.007-.256-2.6.046-1.945.993-1.573 4.321 1.203 4.404.402.012 1.13-.036 1.423-.206M37.895 24.264l-.014-1.125c-.222-.005-.79.348-1.475.08-1.025-.398-.958-1.813-.113-2.222.626-.304 1.147.022 1.465.104l.117-1.12c-1.804-.72-3.799.149-3.809 2.109-.01 1.987 1.938 2.78 3.83 2.174M32.068 31.7l-.016-1.136c-.25.035-.404.145-.72.173a1.245 1.245 0 01-.849-2.316c.556-.26 1.008-.05 1.443.122l.123-1.126c-1.301-.613-3.794-.168-3.811 2.09-.008 1.044.508 1.69 1.15 2.042.877.482 1.728.369 2.68.151M39.658 13.16c-.057-.061-.08.065-.07-.363a4.366 4.366 0 00-.006-.369l-1.381-.019-.01 4.511 1.538.002c.047-1.172-.276-2.692.573-3.182.35-.203.666-.12 1.068-.104l.079-1.28c-1.026-.173-1.446.137-1.791.805M45.037 20.604l-.005-.755-1.381-.007-.015 4.498 1.528.002c.037-.707-.081-1.791.059-2.407.255-1.126 1.205-.849 1.588-.885.034-.138.085-1.145.05-1.266-1.506-.262-1.57.706-1.824.82M32.789 31.78l1.532.004.004-4.502-1.531-.007z"/><path d="M41.952 16.91l1.523.013.01-4.502-1.528-.01zM32.79 26.53l1.525.002.01-1.124-1.533-.008zM41.954 11.664l1.515.01.016-1.126-1.53-.01zM49.776 27.066c-.988.362-.448 1.702.455 1.391a.743.743 0 00.431-.94c-.101-.294-.466-.605-.886-.45m.683.912c-.264.687-1.213.302-.97-.424.234-.697 1.247-.3.97.424"/><path d="M55.285 41.91h-41.03L14.244.969h54.424L55.285 41.911zM12.208 24.866c-.127.589-.405.792-.798 1.102-1.431 1.126-2.772 2.228-4.209 3.348-.38.295-.683.544-1.036.823-.199.157-.36.292-.698.264-.578-.049-.85-.71-.597-1.157.155-.275 5.705-4.555 5.756-4.67.017-.194-.065-.275-.14-.374-.455-.047-1.09.53-1.634.163.073-.145.529-.728.562-.843.056-.194-.415-.677-.47-.926 1.047-.057 2.381-.203 2.983.752.239.38.396.986.281 1.518zm-1.904 4.337c-.108.324-.307.452-.538.643-.938.773-2.354 1.968-3.277 2.647-.562.414-1.432.041-1.224-.823.079-.328.312-.463.531-.644.37-.306 3.052-2.508 3.273-2.647.63-.395 1.495.041 1.235.824zm-.553 3.06c-.145.46-1.558 1.456-2.013 1.8-.302.23-.834.707-1.146.76-.61.105-1.114-.328-.923-.98.098-.337 1.668-1.477 2.034-1.764.264-.207.826-.69 1.138-.764.62-.146 1.111.31.91.947zm-1.224 4.666c-.417.5-1.196.38-1.58-.01-.265-.268-.23-.468-.23-.91 0-.116-.014-.478.006-.568.037-.164 1.578-1.212 1.598-1.217l.013 1.116c.433.319.62 1.075.193 1.589zM3.09 25.53c-.7-.97-.336-2.918 1.47-2.918l1.53.003c-.068.302-.512.702-.459.91.044.17.491.632.555.862-.891.372-1.84-.686-1.824.207.193.129 2.626 2.09 2.724 2.199-.043.093-1.046.892-1.204.967-.17-.06-1.168-.893-1.421-1.095-.278-.222-1.193-.89-1.37-1.135zM6.717 9.624c0-.968-.03-1.986 0-2.947.006-.236.645-1.888.79-2.098.093.062.79 1.795.817 1.955.044.268.009 14.922.009 16.588 0 .887.04 1.876-.007 2.75-.227.15-.646.55-.82.604-1.045-.763-.788-.52-.789-2.13V9.624zM0 0l.012 42.88h55.963L69.992 0H0z"/></g></svg>