<svg width="444" height="103" xmlns="http://www.w3.org/2000/svg"><g fill="#FFF" fill-rule="evenodd"><path d="M300.162 20.715h-10.378v.026H278.94V0h-14.144v84.861h14.144v-60.6h9.035c.997 0 1.808.808 1.808 1.803v58.784h14.149V24.475c0-2.078-1.69-3.76-3.771-3.76M339.619 26.071v53.47c0 .994-.81 1.802-1.811 1.802h-7.222c-1 0-1.81-.808-1.81-1.802V26.07c0-.997.81-1.802 1.81-1.802h7.222c1 0 1.81.805 1.81 1.802m10.368-5.357l-31.575.024a3.775 3.775 0 00-3.78 3.768v56.587a3.773 3.773 0 003.78 3.768h31.575a3.771 3.771 0 003.777-3.768V24.479a3.77 3.77 0 00-3.777-3.765M403.584 20.714h-14.146v60.642h-9.025a1.807 1.807 0 01-1.808-1.805V20.743h-14.149V81.09a3.766 3.766 0 003.771 3.76h.533v.026h32.045v-.013h2.78v-64.15zM443.881 24.236v-3.52H418.59v.026h-.532a3.763 3.763 0 00-3.771 3.76V84.85h14.149V26.04c0-.995.808-1.803 1.805-1.803h13.641z"/><g><path d="M35.365 20.715H24.987v.026h-10.84V0H0v84.861h14.146v-60.6h9.03c1 0 1.811.808 1.811 1.803v58.784h14.15V24.475c0-2.078-1.691-3.76-3.772-3.76M224.307 20.74v60.589h-9.043c-1 0-1.81-.808-1.81-1.806v-58.78H199.33v60.372c0 2.075 1.69 3.76 3.771 3.76h10.352v-.026h10.853v18.082h14.147V20.74h-14.147zM124.654 79.552c0 .997-.81 1.803-1.808 1.803h-9.033V24.26h9.033c.997 0 1.808.808 1.808 1.803v53.488zm10.38-58.837h-10.38v.026h-10.84v-.005H99.666v82.195h14.146V84.875h13.759v-.027h7.462a3.766 3.766 0 003.772-3.76V24.475c0-2.078-1.69-3.76-3.772-3.76zM174.483 79.552c0 .997-.81 1.803-1.808 1.803h-9.027V24.26h9.027c.998 0 1.808.808 1.808 1.803v53.488zm10.378-58.837h-10.378v.026h-10.835v-.005h-14.144v82.195h14.144V84.875h17.201v-.027h4.012a3.765 3.765 0 003.771-3.76V24.475a3.765 3.765 0 00-3.771-3.76zM74.82 81.355h-9.025a1.807 1.807 0 01-1.808-1.802v-39.16c0-.998.81-1.806 1.808-1.806h9.024v42.768zm10.377-60.64l-12.274.006v-.006H50.53v3.552h22.481c.998 0 1.808.808 1.808 1.806v8.994H53.61a3.766 3.766 0 00-3.771 3.76V81.09c0 2.077 1.69 3.76 3.771 3.76h35.36V24.473a3.762 3.762 0 00-3.772-3.758z"/></g></g></svg>