<svg width="167" height="27" xmlns="http://www.w3.org/2000/svg"><g fill="#FFF" fill-rule="evenodd"><path d="M78.59 6.706h-6.608c-.12 0-.22.099-.22.217v12.97c0 .12.1.218.22.218h6.609a.221.221 0 00.224-.215V18.8a.222.222 0 00-.224-.217h-4.886a.22.22 0 01-.224-.215V13.85c0-.12.102-.217.224-.217h4.384a.221.221 0 00.224-.216v-1.097a.22.22 0 00-.224-.215h-4.384a.223.223 0 01-.224-.217V8.453c0-.118.102-.217.224-.217h4.886a.222.222 0 00.224-.217V6.923a.223.223 0 00-.224-.217M162.794 6.706h-6.61c-.12 0-.222.099-.222.217v12.97c0 .12.101.218.221.218h6.61a.22.22 0 00.222-.215V18.8a.22.22 0 00-.221-.218h-4.889a.22.22 0 01-.222-.215V13.85c0-.12.1-.217.222-.217h4.386a.22.22 0 00.221-.216v-1.097a.22.22 0 00-.221-.215h-4.386a.222.222 0 01-.222-.217V8.453c0-.118.1-.217.222-.217h4.889a.22.22 0 00.22-.217V6.923a.22.22 0 00-.22-.217M68.242 6.706h-9.455c-.122 0-.223.099-.223.217V8.02c0 .118.1.217.223.217h3.643a.22.22 0 01.225.217v11.443c0 .118.1.216.223.216h1.275a.223.223 0 00.224-.216V8.453a.22.22 0 01.223-.217h3.642a.223.223 0 00.226-.217V6.923a.224.224 0 00-.226-.217M38.984 15.223c-.123 0-.18-.09-.131-.199L41.125 10c.05-.108.132-.108.18 0l2.402 5.224h-4.723zm2.593-8.32a.378.378 0 00-.315-.197h-.09a.378.378 0 00-.316.197l-6.139 13.013c-.05.108.007.195.133.195h1.402a.379.379 0 00.316-.197l1.385-2.966a.386.386 0 01.318-.195h6.14l1.453 3.161c.052.11.193.197.314.197h1.405c.123 0 .18-.087.132-.195L41.577 6.903zM57.582 18.583h-4.884a.218.218 0 01-.224-.214V6.923c0-.118-.1-.217-.223-.217h-1.273c-.123 0-.226.099-.226.217v12.974c0 .119.1.215.226.215h6.604a.22.22 0 00.224-.215v-1.096c0-.12-.1-.218-.224-.218M84.53 12.812v-4.38c0-.12.085-.218.208-.218h3.122c1.612 0 2.554.872 2.554 2.308 0 1.447-.92 2.29-2.554 2.29h-3.33zm4.854 1.559c-.076-.14-.052-.26.122-.308h-.002c1.656-.51 2.618-1.8 2.618-3.56 0-2.26-1.649-3.797-4.128-3.797H83.03c-.12 0-.221.099-.221.217v12.973c0 .118.102.215.221.215h1.26a.223.223 0 00.225-.215v-5.377c0-.12.1-.218.223-.218h2.452c.123 0 .264.09.314.197l2.81 5.41c.046.11.182.203.306.203h1.616c.122 0 .175-.085.118-.193l-2.97-5.547zM118.834 15.224h-4.703L116.6 9.91l2.368 5.115c.05.11-.01.2-.134.2zm-1.874-8.32a.378.378 0 00-.313-.198h-.091a.38.38 0 00-.315.197l-6.136 13.013c-.053.108.007.196.13.196h1.404a.377.377 0 00.314-.196l1.468-3.163h6.125a.38.38 0 01.315.195l1.39 2.966c.052.11.193.198.315.198h1.405c.12 0 .178-.088.13-.196L116.96 6.903zM132.899 6.706h-9.457a.22.22 0 00-.223.217V8.02a.22.22 0 00.223.217h3.646a.22.22 0 01.222.217v11.443c0 .118.1.216.224.216h1.272a.223.223 0 00.226-.216V8.453c0-.12.1-.217.223-.217h3.644a.22.22 0 00.222-.217V6.923a.22.22 0 00-.222-.217M138.048 6.706h-1.274c-.123 0-.225.099-.225.217v12.973c0 .118.102.215.225.215h1.274a.22.22 0 00.223-.215V6.923c0-.118-.099-.217-.223-.217M153.38 6.706h-1.438a.36.36 0 00-.307.2l-4.04 9.652-4.012-9.651a.362.362 0 00-.307-.201h-1.439c-.12 0-.185.091-.135.2l5.53 13.005a.36.36 0 00.307.201h.156a.372.372 0 00.31-.2l5.514-13.005c.047-.11-.013-.201-.138-.201M106.99 6.706h-1.265c-.125 0-.229.099-.229.222v9.453c0 .122-.067.145-.149.055l-7.686-9.565a.583.583 0 00-.379-.165h-.702c-.125 0-.225.099-.225.222v12.964c0 .122.1.22.225.22h1.268c.126 0 .229-.098.229-.22v-9.719c0-.122.067-.147.151-.058l7.847 9.833c.083.091.255.164.378.164h.537a.223.223 0 00.226-.22V6.928a.224.224 0 00-.226-.222M13.993 10.21c.088.004.175.062.244.169l1.615 2.719c.04.065.1.18.192.051.08-.115.433-.693.496-.796.065-.104.087-.15.048-.215-.017-.027-1.343-2.263-2.172-3.614-.434-.71-1.587-2.59-1.587-3.514 0-.452.115-1.5 1.188-1.5 1.074 0 1.19 1.048 1.19 1.5 0 .237-.083.68-.455 1.48l-.114.23c-.002.005-.002.01-.005.015l-.005.01h.002c-.016.058.02.11.063.173.047.074.425.731.48.812.054.081.124.078.204-.051l.263-.46c.463-.934.69-1.656.69-2.21 0-1.288-.715-2.589-2.313-2.589-1.596 0-2.311 1.301-2.311 2.59 0 .881.565 2.06 1.268 3.272.314.53.322.704.14 1.015l-2.41 4.048c-.07.118-.162.179-.253.182-.091-.003-.183-.064-.252-.182l-1.722-2.858a.542.542 0 00-.725-.19l-.038.025a.507.507 0 00-.193.704l2.208 3.678.084.142-2.637 4.438c-.071.121-.168.183-.263.183h-.001l-.014-.002c-.09-.006-.18-.066-.25-.183l-.005-.012-1.67-2.834a.54.54 0 00-.725-.189l-.038.02a.508.508 0 00-.198.702l2.633 4.466a.455.455 0 00.106.123l.005.006c.005.004.008.008.012.01l.002.001c0 .003 0 .003.002.003a.267.267 0 00.076.033h.004a.22.22 0 00.142-.008L7 21.6a.38.38 0 00.059-.032l.02-.018c.012-.011.027-.023.039-.036a.587.587 0 00.056-.077l6.567-11.047c.07-.116.161-.177.253-.181"/><path d="M21.303 19.333a.37.37 0 01-.095.092.213.213 0 01-.06.03c-.119.039-.247-.019-.337-.171l-2.266-3.812c-.312-.53-.32-.703-.139-1.014l2.061-3.432a.507.507 0 00-.193-.704l-.038-.024a.54.54 0 00-.725.189l-5.264 8.8c-.071.118-.16.18-.254.183-.09-.004-.182-.065-.25-.183l-1.648-2.75c-.039-.066-.099-.182-.19-.05-.08.114-.416.683-.481.786-.065.103-.086.149-.047.214l2.368 3.946c.069.114.158.175.248.18.093-.005.181-.066.25-.18l3.293-5.512 3.28 5.517c.144.244.383.244.528-.003l2.63-4.466a.507.507 0 00-.195-.702l-.038-.02a.539.539 0 00-.724.19l-1.68 2.845a.262.262 0 01-.034.05"/><path d="M13.993 25.722c-6.99 0-12.68-5.523-12.68-12.313 0-6.79 5.69-12.314 12.68-12.314 6.992 0 12.68 5.524 12.68 12.314s-5.688 12.313-12.68 12.313zm0-25.718C6.383.004.19 6.017.19 13.41c0 7.392 6.192 13.406 13.802 13.406 7.613 0 13.805-6.014 13.805-13.406S21.606.004 13.993.004zM166.469 20.046a.983.983 0 01-.718.285.977.977 0 01-.71-.292.944.944 0 01-.289-.7c.001-.272.1-.503.296-.694a.986.986 0 01.714-.284c.28 0 .519.098.715.292.194.192.29.424.29.695-.001.274-.1.506-.298.698zm.121-1.509a1.167 1.167 0 00-.834-.332c-.322 0-.595.112-.823.332a1.075 1.075 0 00-.345.806c0 .315.114.586.342.809.226.224.503.335.826.335.326 0 .603-.111.834-.335.227-.224.344-.494.344-.81 0-.316-.117-.583-.344-.805z"/><path d="M166.023 19.298a.723.723 0 01-.215.022h-.203v-.369h.192c.125 0 .218.013.276.039.056.024.083.074.083.15 0 .078-.043.13-.133.158zm.335.485l-.001-.075v-.075a.246.246 0 00-.07-.158c-.047-.054-.12-.087-.221-.1a.58.58 0 00.186-.05.214.214 0 00.125-.201c0-.129-.067-.214-.2-.259a1.232 1.232 0 00-.351-.036h-.449v1.021h.228v-.403h.178a.66.66 0 01.251.034c.08.038.122.116.122.233v.081l.004.032.003.012c.003.004.003.007.004.011h.21l-.007-.014a.167.167 0 01-.012-.053z"/></g></svg>