<svg width="97" height="31" xmlns="http://www.w3.org/2000/svg" xmlns:xlink="http://www.w3.org/1999/xlink"><defs><path id="a" d="M0 0h96.481v30.704H0z"/></defs><g fill="none" fill-rule="evenodd"><mask id="b" fill="#fff"><use xlink:href="#a"/></mask><path d="M90.824 29.307h-.203v-.353h.215c.111 0 .179.004.2.005.045.008.08.026.104.054.024.03.037.069.037.113 0 .043-.009.078-.029.105a.138.138 0 01-.076.06 1.01 1.01 0 01-.248.016zm.427.309a.756.756 0 00-.149-.118.429.429 0 00.274-.13.374.374 0 00.089-.258.406.406 0 00-.06-.22.31.31 0 00-.159-.135.93.93 0 00-.32-.039h-.583v1.4h.278v-.583h.057c.062 0 .109.005.138.017a.19.19 0 01.083.057c.028.027.075.097.147.206l.198.304h.331l-.166-.272a1.606 1.606 0 00-.158-.229zm-1.848.056l-.251-.956h-.415v1.4h.256l.001-1.102.272 1.103h.27l.27-1.103.002 1.103h.256v-1.4h-.42l-.24.955zm-53.13-12.365c-.247.393-.506.773-.732 1.078a7.753 7.753 0 01-.584.71 3.826 3.826 0 01-.422.411c-.207.17-.374.265-.544.316a.731.731 0 01-.775-.234c-.221-.29-.242-.467-.22-.797.013-.147.046-.333.113-.576.065-.243.16-.536.319-.914.157-.37.374-.828.694-1.403.321-.567.743-1.254 1.247-1.974a29.513 29.513 0 011.607-2.099c.53-.628 1.006-1.13 1.384-1.486.376-.364.654-.578.867-.723.211-.15.355-.223.473-.268.217-.087.413-.092.603 0 .327.227.184.634.155.846-.025.088-.051.161-.2.435-.15.269-.43.736-.71 1.203l-3.276 5.475zM20.836 10.97a5.13 5.13 0 01-.084.571c-.042.194-.09.367-.223.687-.134.328-.35.798-.582 1.27a7.306 7.306 0 01-.808-.348 3.433 3.433 0 01-.506-.324 1.998 1.998 0 01-.306-.294c-.083-.088-.146-.183-.202-.264-.394-.734-.362-1.491.382-2.246.108-.109.232-.21.367-.303.134-.095.28-.18.422-.239.436-.17.846-.34 1.228-.01.41.522.333.983.312 1.5zm-3.733 6.969c-.562.786-.803 1.031-.998 1.226-.2.19-.356.327-.495.428-.14.102-.266.173-.384.23-.55.246-1.165.284-1.548-.331-.13-.264-.166-.496-.13-.833.02-.197.069-.444.173-.773.106-.331.265-.749.529-1.283.26-.532.625-1.177 1.096-1.894a27.907 27.907 0 011.651-2.242c.265.384.551.746.78 1 .23.252.403.393.664.555.259.16.61.332.972.48a78.48 78.48 0 01-2.31 3.437zm23.923.126c-.506.632-.734.863-.906 1.03-.174.17-.29.263-.39.328a.827.827 0 01-.625.171c-.123.007-.303-.152-.282-.353.01-.113-.031-.116.076-.375.058-.141.162-.39.452-.982.29-.596.767-1.546 1.253-2.486l4.24-7.515h-2.702l-.505.638a7.59 7.59 0 00-1-.54 2.12 2.12 0 00-.616-.181 3.52 3.52 0 00-.57-.045c-.636.01-1.269.2-2.04.668-.29.183-.619.42-1.037.758-.418.335-.925.774-1.872 1.883-.95 1.108-2.34 2.886-3.492 4.326-1.148 1.447-2.063 2.554-2.713 3.275-.654.72-1.041 1.035-1.358 1.274a5.321 5.321 0 01-.782.509 2.415 2.415 0 01-.585.233c-.46.114-.941.106-1.284-.148-.211-.184-.26-.346-.307-.54-.096-.537-.004-.964.11-1.484.067-.303.17-.66.314-1.055.143-.401.335-.854.598-1.372.258-.52.588-1.103.993-1.735.804-1.27 1.968-2.721 2.877-3.614.45-.45.82-.76 1.11-.972.286-.207.49-.32.644-.385a.904.904 0 01.368-.092c.147.003.275.022.401.124.158.15.18.249.2.489.006.106.002.257-.012.41a4.905 4.905 0 00-.713.168c-.2.066-.345.136-.466.202a3.074 3.074 0 00-.31.203 1.755 1.755 0 00-.69 1.48c.032.192.151.39.315.538.472.437 1.097.15 1.73-.63a4.54 4.54 0 00.342-.484 5.061 5.061 0 00.669-1.577c.159-.746.136-1.62-.707-2.275a1.64 1.64 0 00-1.003-.304c-.222 0-.494.028-.774.09a5.403 5.403 0 00-.884.292c-.324.138-.684.316-1.36.877-.674.564-1.667 1.514-2.447 2.204-.785.688-1.356 1.119-1.85 1.438a8.439 8.439 0 01-1.307.694 7.846 7.846 0 01-1.18.392c.235-.537.448-1.086.609-1.555.163-.473.274-.87.347-1.17.076-.298.109-.51.126-.725.033-.42-.013-.867-.137-1.209a1.97 1.97 0 00-.22-.435 1.621 1.621 0 00-.65-.567c-.63-.283-1.182-.237-1.858-.067a6.25 6.25 0 00-1.183.47c-.449.23-.953.539-1.508.957-.554.414-1.156.934-1.756 1.542a20.818 20.818 0 00-1.737 1.998c-1.065 1.407-1.874 2.86-2.365 4.077a11.958 11.958 0 00-.543 1.645 9.897 9.897 0 00-.234 1.321 4.59 4.59 0 00-.005.898c.024.254.073.476.142.674.068.203.156.381.266.538.11.157.24.295.394.41.156.117.332.207.538.272.205.062.436.102.694.102.258 0 .546-.04.842-.109.297-.073.606-.183.94-.347.332-.165.69-.38 1.086-.673.403-.3.844-.685 1.361-1.206a22.289 22.289 0 001.85-2.186 54.984 54.984 0 002.465-3.633l2.07-.512a53.995 53.995 0 00-1.513 3.092c-.33.755-.42 1.077-.49 1.427-.226 1.098-.293 2.216.188 3.087a2.413 2.413 0 001.376 1.15c.312.107.672.165 1.035.158.935-.008 1.765-.224 2.879-.962.381-.253.81-.574 1.398-1.122.59-.545 1.33-1.31 2.041-2.12a24.88 24.88 0 00-.106 1.862c-.001.454.028.663.061.827.033.167.067.293.107.406.04.105.087.197.135.277.184.284.377.393.598.48.753.208 1.358.1 2.128-.27.273-.135.578-.314.975-.614.395-.3.886-.731 1.355-1.181-.026.29-.04.573-.036.787.005.207.022.337.045.444.035.18.074.305.177.457.265.341.55.393.916.45.146.018.328.031.512.031.721-.008 1.453-.261 2.328-.857.457-.309.95-.728 1.486-1.282a17.6 17.6 0 001.722-2.127 30.19 30.19 0 001.833-2.998l-.554-.129a82.413 82.413 0 01-2.053 2.667zM67.907 2.55c-.056.549-.155 1.105-.325 1.752a19.152 19.152 0 01-.683 2.09 18.129 18.129 0 01-.863 1.877c-.292.538-.566.966-.819 1.318-.653.892-1.209 1.383-1.797 1.667-.613.27-1.175.308-1.667-.021a.935.935 0 01-.329-.489c-.101-.633.075-1.174.332-1.865.114-.283.256-.583.45-.918.19-.34.436-.71.756-1.13.32-.42.718-.89 1.217-1.391a18.15 18.15 0 011.748-1.56 16.035 16.035 0 011.98-1.33zm-7.439 17.024c.157-.646.257-1.254.308-1.866.04-.455.008-.913-.103-1.25a1.854 1.854 0 00-.191-.406 1.46 1.46 0 00-.627-.548 1.878 1.878 0 00-.49-.156 3.158 3.158 0 00-.659-.06c-.255 0-.54.03-.823.081-1.146.226-2.35.868-3.605 2.313-.318.373-.638.8-.954 1.288a14.51 14.51 0 00-.905 1.65 17.14 17.14 0 00-.784 1.952 19.595 19.595 0 00-.567 2.143c.646-.56 1.31-1.104 1.785-1.468a9.203 9.203 0 011.153-.765c.385-.216.873-.466 1.365-.7.171-.81.436-1.629.753-2.31.144-.321.298-.603.444-.844a5.7 5.7 0 01.436-.617c.397-.494.771-.767 1.14-.927.544-.188.972-.267 1.422.176.192.25.234.457.26.721-.003.969-.209 1.838-.556 2.837-.158.444-.359.907-.605 1.392-.245.48-.545.982-.905 1.502a15.49 15.49 0 01-2.8 3.06c-1.04.864-2.123 1.48-2.864 1.722a3.006 3.006 0 01-.893.168 2.213 2.213 0 01-.731-.111 2.832 2.832 0 01-1.312-.956 3.73 3.73 0 01-.451-.783 3.655 3.655 0 01-.263-1.715c.075-.656.23-1.301.633-2.408a45.666 45.666 0 011.936-4.457 69.423 69.423 0 013.043-5.42 51.303 51.303 0 013.019-4.325 32.942 32.942 0 012.482-2.865 22.153 22.153 0 011.976-1.804 14.207 14.207 0 011.573-1.087c.469-.276.894-.48 1.287-.636 1.038-.428 1.979-.454 3.033-.436a18.99 18.99 0 00-2.316 1.624c-1.42 1.157-2.467 2.368-3.148 3.4a11.201 11.201 0 00-.815 1.46 7.814 7.814 0 00-.46 1.278 7.423 7.423 0 00-.2 1.072c-.03.295-.025.512 0 .696.023.191.07.355.126.503.062.144.136.267.229.379a1.3 1.3 0 00.33.284c.13.08.282.14.46.187.177.048.38.07.584.07.43 0 .869-.117 1.4-.37a5.85 5.85 0 00.906-.572c.33-.248.69-.557 1.06-.937.368-.382.745-.827 1.103-1.315.359-.488.7-1.023.99-1.554.563-1.022.962-2.056 1.174-2.95a7.83 7.83 0 00.201-1.218c.008-.097.01-.196.012-.39a47.745 47.745 0 01-.013-.69c-.001-.207.007-.325.019-.45a9.614 9.614 0 012.713.342c.857.24 1.648.606 2.8 1.357 1.148.755 2.658 1.897 4.094 3.146l2.724-2.932c-.9-.81-1.843-1.553-2.67-2.116A13.682 13.682 0 0076.568.738 9.306 9.306 0 0074.864.17c-.79-.175-1.422-.212-2.293-.114-.3.034-.604.088-1.218.264-.61.18-1.52.488-2.422.83-.483-.329-.99-.625-1.361-.803-.375-.174-.602-.237-.844-.277-.902-.155-1.728-.045-2.84.287-.806.252-1.772.644-2.91 1.264-1.137.624-2.443 1.475-3.792 2.527a39.534 39.534 0 00-4.005 3.614 40.285 40.285 0 00-3.417 4.023 34.125 34.125 0 00-2.475 3.826 27.485 27.485 0 00-1.603 3.383 22.609 22.609 0 00-.928 2.961c-.219.924-.354 1.776-.413 2.465a7.34 7.34 0 00.016 1.715c.065.5.186.982.367 1.434.183.448.42.872.714 1.255a5 5 0 001.052 1.008c.4.275.853.498 1.329.647.995.296 1.931.316 3.022-.029a9.617 9.617 0 001.917-.849c1.429-.803 3.038-2.153 4.274-3.617 1.276-1.49 2.184-3.038 2.765-4.414.29-.699.507-1.36.669-1.995zm22.343 5.012c-.346.56-.733 1.093-1.046 1.489a6.503 6.503 0 01-.747.827c-.202.18-.37.298-.539.37-.337.153-.706.18-.938-.038-.196-.25-.172-.439-.15-.798.016-.16.05-.374.1-.615.055-.245.132-.52.24-.83.106-.31.248-.657.44-1.062.193-.402.437-.86.743-1.37.31-.512.682-1.075 1.112-1.656.434-.576.925-1.18 1.395-1.702.477-.526.931-.978 1.313-1.315a7.42 7.42 0 01.921-.72 2.93 2.93 0 01.533-.28c.13-.05.227-.07.323-.07.17.003.298.003.427.085.19.183.086.394.023.642a3.784 3.784 0 01-.217.558c-.106.226-.25.495-.407.753l-3.526 5.732zm-13.325-6.128a5.598 5.598 0 01-.08.548c-.035.183-.08.36-.235.736-.152.377-.42.956-.71 1.525a6.106 6.106 0 01-.823-.349 2.13 2.13 0 01-.453-.296 1.617 1.617 0 01-.262-.265 1.617 1.617 0 01-.299-.535c-.255-.96-.113-1.948.956-2.723.321-.203.634-.293.924-.287.295.005.513.02.75.236.227.268.238.495.257.863 0 .152-.009.351-.025.547zm-2.37 5.425c-.367.55-.744 1.065-1.11 1.509-.363.448-.719.831-1.016 1.122a6.143 6.143 0 01-.761.649 2.867 2.867 0 01-.484.28.723.723 0 01-.307.074c-.285-.005-.563-.136-.79-.463a1.569 1.569 0 01-.183-.366c-.107-.328-.139-.596-.1-1.027.023-.239.072-.55.15-.875.08-.324.19-.666.34-1.025.505-1.227 1.44-2.53 2.678-3.634a2.93 2.93 0 00.935 1.228c.164.129.36.253.65.397.29.138.667.289 1.056.412-.33.596-.686 1.173-1.057 1.719zm22.236-.837a39.683 39.683 0 01-1.496 2c-.434.546-.766.906-1.034 1.182-.265.27-.469.452-.638.584-.164.133-.3.219-.41.281-.227.12-.382.18-.598.14-.212-.053-.203-.249-.195-.368.032-.093-.038.037.262-.562.224-.441.653-1.278 1.089-2.114l5.032-8.913h-2.476l-.852.762a6.973 6.973 0 00-.864-.529 1.88 1.88 0 00-.534-.19 2.337 2.337 0 00-.47-.043c-.853.004-1.665.292-2.566.849-.269.167-.556.37-.882.63-.322.26-.682.588-1.115 1.01-.44.422-.949.941-1.852 2.12-.903 1.178-2.2 3.007-3.112 4.257-.908 1.256-1.436 1.938-1.807 2.36-.361.427-.563.593-.724.714a1.69 1.69 0 01-.382.223.707.707 0 01-.4.058c-.23-.013-.5-.367-.539-.612-.086-.46-.036-.667.123-1.372.093-.416.257-1.031.504-1.817.241-.786.57-1.742.918-2.688 1.918-1.285 3.78-2.696 5.204-3.924a26.381 26.381 0 003.446-3.525 43.656 43.656 0 003.036-4.275l-1.138.13a33.44 33.44 0 01-2.475 3.235 40.618 40.618 0 01-3.204 3.321 42.137 42.137 0 01-3.803 3.121 90.613 90.613 0 012.685-4.892 83.999 83.999 0 012.911-4.575 61.513 61.513 0 012.82-3.808 35.307 35.307 0 012.281-2.573c.631-.635 1.12-1.053 1.501-1.338.378-.28.653-.43.86-.523.207-.087.35-.12.492-.12.067 0 .136.022.199.07.266.242.22.382.172.653-.008.076-.031.155-.147.462-.116.305-.33.836-.554 1.36l1.025-.124c.19-.31.364-.63.47-.856a1.87 1.87 0 00.175-.48c.032-.137.055-.293.068-.45.036-.523-.057-1.028-.51-1.452a1.313 1.313 0 00-.42-.246C88.9.03 88.425.126 87.819.297a7.15 7.15 0 00-1.49.657c-.577.326-1.253.785-2.066 1.457a28.616 28.616 0 00-2.85 2.744 50.177 50.177 0 00-3.545 4.348 69.387 69.387 0 00-3.708 5.644 69.464 69.464 0 00-3.22 6.115h-1.352c.266-.584.517-1.181.677-1.608.156-.433.227-.693.282-.955.156-.714.188-1.512-.071-2.145a2.005 2.005 0 00-.292-.507c-.447-.53-.837-.637-1.38-.649a3.501 3.501 0 00-.782.12 4.78 4.78 0 00-1.032.394c-.393.193-.83.457-1.329.82-.499.367-1.052.832-1.638 1.416a21.657 21.657 0 00-1.79 2.024c-1.197 1.541-2.154 3.21-2.694 4.486-.276.648-.47 1.221-.606 1.725a8.346 8.346 0 00-.245 1.317c-.03.372-.022.696.023.981.042.289.12.545.23.77.111.23.253.429.425.593.171.162.37.295.595.38.227.09.478.13.734.134.525.003 1.047-.137 1.693-.472.332-.178.7-.413 1.123-.743.422-.337.891-.76 1.433-1.339a23.526 23.526 0 001.87-2.294c.7-.967 1.497-2.183 2.236-3.428H70.4a75.01 75.01 0 00-1.116 3.226c-.244.78-.31 1.11-.363 1.428-.098.599-.168 1.183-.12 1.69.025.232.071.443.138.639.066.194.153.364.26.524.11.15.236.293.388.41.15.11.321.2.51.264.19.06.4.095.622.098.746-.007 1.464-.271 2.356-.912.334-.244.712-.56 1.167-1.005.454-.448.99-1.034 1.497-1.65-.033.382-.047.765-.04 1.085.008.317.031.565.063.773.033.202.076.37.122.515.046.143.098.26.154.36.12.22.25.355.385.46.275.188.503.25.869.245.149-.004.336-.017.531-.057.386-.08.751-.22 1.214-.511.235-.15.498-.343.864-.676.362-.33.83-.806 1.277-1.3-.03.35-.043.703-.04.97.005.267.03.447.057.589.026.151.054.264.093.363.088.292.38.6.612.663.75.208 1.364.03 2.196-.387.33-.178.697-.413 1.103-.739.404-.33.852-.75 1.359-1.307a20.149 20.149 0 001.66-2.131 33.199 33.199 0 001.82-2.992l-.687.129zm3.333-20.023c-1.209.747-2.286 1.236-3.524 1.56-1.239.332-2.638.51-4.015.493l-2.523 3.183c.208.034.412.06.587.073.341.043.72.06 1.203.056a10.29 10.29 0 002.784-.39c1.938-.52 4.11-1.69 5.793-3.185a14.78 14.78 0 002.147-2.333C95.712 1.69 96.15.92 96.48.106c-1.248 1.146-2.587 2.162-3.796 2.917zM50.132 7.9h-2.925l-1.478 2.803h2.813l1.59-2.803zM34.015 25.655c-1.33-.3-2.9-.464-4.485-.447-1.412-.08-2.842.035-5.42.644-2.581.617-6.309 1.725-8.783 2.36-2.476.632-3.697.794-4.913.819a9.325 9.325 0 01-1.713-.153 6.11 6.11 0 01-1.367-.416 4.736 4.736 0 01-1.019-.592 4.525 4.525 0 01-.747-.724 4.16 4.16 0 01-.535-.84 4.877 4.877 0 01-.354-.969 6.326 6.326 0 01-.175-1.135 8.156 8.156 0 01.014-1.285c.062-.666.192-1.33.46-2.22.269-.895.674-2.017 1.298-3.386a48.007 48.007 0 012.415-4.57 52.334 52.334 0 013.045-4.495 35.069 35.069 0 012.793-3.257 20.607 20.607 0 012.177-1.952c.622-.472 1.14-.79 1.603-1.027a6.02 6.02 0 011.217-.482 3.79 3.79 0 01.996-.14c.207.007.365.016.53.159.155.174.166.315.175.573.004.111-.001.265-.013.414a6.524 6.524 0 00-1.407.966c-.187.169-.325.318-.438.448-.286.342-.464.662-.499 1-.055.247.207.695.394.814.574.468 1.292.155 2.008-.686a4.37 4.37 0 00.404-.586c.126-.217.242-.452.333-.687.353-.948.556-1.926.033-2.758a1.854 1.854 0 00-.464-.494 2.155 2.155 0 00-.668-.324c-.256-.078-.546-.12-.983-.107a8.256 8.256 0 00-1.673.226 11.92 11.92 0 00-2.213.79c-.825.384-1.738.896-2.755 1.6A29.683 29.683 0 0010.008 5.4 38.827 38.827 0 006.586 9.07c-2.223 2.709-3.963 5.613-4.96 7.888a21.82 21.82 0 00-1.118 3.085 13.64 13.64 0 00-.456 2.491c-.091 1.047-.065 2.09.102 2.965.08.414.185.79.317 1.143.13.354.285.678.47.977.184.306.398.582.645.844.25.262.536.507.873.73.337.228.722.429 1.187.612a7.947 7.947 0 001.676.45c.668.115 1.47.177 2.272.177 1.26.04 2.535-.06 4.674-.547 2.142-.49 5.151-1.356 7.3-1.839 2.148-.487 3.433-.59 4.703-.544.802-.004 1.6.057 2.242.173.64.109 1.124.268 1.572.477.45.2.866.452 1.314.835.45.38.939.888 1.376 1.445 1.408-.985 2.848-1.568 3.933-1.755a7.543 7.543 0 011.518-.157c.207.002.408.024.65.059.24.03.516.086 1.291.347.775.267 2.053.747 3.319 1.249-1.238-1.212-2.6-2.287-3.827-3.04a11.272 11.272 0 00-3.644-1.48z" fill="#FEFEFE" mask="url(#b)"/></g></svg>